<?xml version="1.0" encoding="UTF-8" standalone="no"?>
<!-- Created with Inkscape (http://www.inkscape.org/) -->

<svg
   xmlns:svg="http://www.w3.org/2000/svg"
   xmlns="http://www.w3.org/2000/svg"
   xmlns:xlink="http://www.w3.org/1999/xlink"
   version="1.1"
   width="22"
   height="22"
   id="svg15430">
  <defs
     id="defs15432">
    <linearGradient
       x1="-210.97321"
       y1="349.46631"
       x2="-210.97321"
       y2="366.80011"
       id="linearGradient14011"
       xlink:href="#linearGradient3587-6-5-3-7-8-7"
       gradientUnits="userSpaceOnUse"
       gradientTransform="matrix(0.99377135,0,0,0.99243122,-1.2706452,2.6339343)" />
    <linearGradient
       id="linearGradient3587-6-5-3-7-8-7">
      <stop
         id="stop3589-9-2-2-3-2-5"
         style="stop-color:#000000;stop-opacity:1"
         offset="0" />
      <stop
         id="stop3591-7-4-73-3-5-0"
         style="stop-color:#363636;stop-opacity:1"
         offset="1" />
    </linearGradient>
    <linearGradient
       x1="-210.97321"
       y1="349.46631"
       x2="-210.97321"
       y2="366.80011"
       id="linearGradient15538"
       xlink:href="#linearGradient3587-6-5-3-7-8-7"
       gradientUnits="userSpaceOnUse"
       gradientTransform="matrix(0.99377135,0,0,0.99243122,-1.2706452,2.6339343)" />
    <mask
       id="mask15645">
      <path
         d="m -204.3923,351.61829 a 5.1685405,6.2425232 0 1 1 -10.33708,0 5.1685405,6.2425232 0 1 1 10.33708,0 z"
         transform="matrix(0.96739104,0,0,0.80095822,-11.27272,76.36844)"
         id="path15647"
         style="opacity:0.9;fill:#ffffff;fill-opacity:1;stroke:none" />
    </mask>
  </defs>
  <g
     transform="translate(0,6)"
     id="layer1">
    <g
       transform="translate(221,-353)"
       id="g13991"
       style="opacity:0.4;display:inline;enable-background:new">
      <path
         d="m -204.87841,349.8772 c -0.53951,-0.53879 -1.28484,-0.8772 -2.10811,-0.8772 -1.64653,0 -2.98648,1.33813 -2.98648,2.98246 0.40967,2.69154 -2.02756,3.64308 -4.04052,4.03508 -1.64653,0 -2.98648,1.33815 -2.98648,2.98246 0,1.02771 0.52302,1.9196 1.31757,2.45614 0.47672,0.32194 1.05146,0.52632 1.66891,0.52632 2.39518,-0.036 3.96866,1.64016 4.04055,4.03509 0,1.64431 1.33994,2.98245 2.98648,2.98245 0.82327,0 1.5686,-0.33841 2.10811,-0.87719 0.53951,-0.53879 0.87838,-1.2831 0.87838,-2.10526 0,-1.64431 -1.33994,-2.98247 -2.98649,-2.98247 -2.6286,0.36457 -4.12838,-2.14896 -4.12838,-4.03508 0,-1.88613 1.70479,-3.96254 4.12838,-4.0351 1.64653,10e-6 2.98648,-1.33814 2.98649,-2.98246 -4e-5,-0.82213 -0.33891,-1.56644 -0.87841,-2.10522 l 0,-2e-5 z"
         id="path13993"
         style="opacity:0.6;fill:#ffffff;fill-opacity:1;stroke:none;display:inline;enable-background:new" />
      <path
         d="m -204.87841,348.8772 c -0.53951,-0.53879 -1.28484,-0.8772 -2.10811,-0.8772 -1.64653,0 -2.98648,1.33813 -2.98648,2.98246 0.40967,2.69154 -2.02755,3.64308 -4.04051,4.03508 -1.64654,0 -2.98648,1.33815 -2.98649,2.98246 0,1.02771 0.52302,1.9196 1.31757,2.45614 0.47672,0.32194 1.05146,0.52632 1.66892,0.52632 2.39518,-0.036 3.96866,1.64016 4.04054,4.03509 0,1.64431 1.33994,2.98245 2.98648,2.98245 0.82328,0 1.5686,-0.33841 2.10811,-0.87719 0.53951,-0.53879 0.87838,-1.2831 0.87838,-2.10526 0,-1.64431 -1.33994,-2.98247 -2.98649,-2.98247 -2.6286,0.36457 -4.12838,-2.14896 -4.12838,-4.03508 0,-1.88613 1.7048,-3.96254 4.12838,-4.0351 1.64654,10e-6 2.98649,-1.33814 2.98649,-2.98246 -4e-5,-0.82213 -0.33891,-1.56644 -0.87841,-2.10522 l 0,-2e-5 z"
         id="path13995"
         style="opacity:0.7;fill:url(#linearGradient15538);fill-opacity:1;stroke:none;display:inline;enable-background:new" />
    </g>
    <g
       transform="translate(221,-353)"
       mask="url(#mask15645)"
       id="g14005"
       style="display:inline;enable-background:new">
      <path
         d="m -204.87841,349.8772 c -0.53951,-0.53879 -1.28484,-0.8772 -2.10811,-0.8772 -1.64653,0 -2.98648,1.33813 -2.98648,2.98246 0.40967,2.69154 -2.02756,3.64308 -4.04052,4.03508 -1.64653,0 -2.98648,1.33815 -2.98648,2.98246 0,1.02771 0.52302,1.9196 1.31757,2.45614 0.47672,0.32194 1.05146,0.52632 1.66891,0.52632 2.39518,-0.036 3.96866,1.64016 4.04055,4.03509 0,1.64431 1.33994,2.98245 2.98648,2.98245 0.82327,0 1.5686,-0.33841 2.10811,-0.87719 0.53951,-0.53879 0.87838,-1.2831 0.87838,-2.10526 0,-1.64431 -1.33994,-2.98247 -2.98649,-2.98247 -2.6286,0.36457 -4.12838,-2.14896 -4.12838,-4.03508 0,-1.88613 1.70479,-3.96254 4.12838,-4.0351 1.64653,10e-6 2.98648,-1.33814 2.98649,-2.98246 -4e-5,-0.82213 -0.33891,-1.56644 -0.87841,-2.10522 l 0,-2e-5 z"
         id="path14007"
         style="opacity:0.6;fill:#ffffff;fill-opacity:1;stroke:none;display:inline;enable-background:new" />
      <path
         d="m -204.87841,348.8772 c -0.53951,-0.53879 -1.28484,-0.8772 -2.10811,-0.8772 -1.64653,0 -2.98648,1.33813 -2.98648,2.98246 0.40967,2.69154 -2.02755,3.64308 -4.04051,4.03508 -1.64654,0 -2.98648,1.33815 -2.98649,2.98246 0,1.02771 0.52302,1.9196 1.31757,2.45614 0.47672,0.32194 1.05146,0.52632 1.66892,0.52632 2.39518,-0.036 3.96866,1.64016 4.04054,4.03509 0,1.64431 1.33994,2.98245 2.98648,2.98245 0.82328,0 1.5686,-0.33841 2.10811,-0.87719 0.53951,-0.53879 0.87838,-1.2831 0.87838,-2.10526 0,-1.64431 -1.33994,-2.98247 -2.98649,-2.98247 -2.6286,0.36457 -4.12838,-2.14896 -4.12838,-4.03508 0,-1.88613 1.7048,-3.96254 4.12838,-4.0351 1.64654,10e-6 2.98649,-1.33814 2.98649,-2.98246 -4e-5,-0.82213 -0.33891,-1.56644 -0.87841,-2.10522 l 0,-2e-5 z"
         id="path14009"
         style="opacity:0.7;fill:url(#linearGradient14011);fill-opacity:1;stroke:none;display:inline;enable-background:new" />
    </g>
  </g>
</svg>
