<?xml version="1.0" encoding="UTF-8" standalone="no"?>
<!-- Created with Inkscape (http://www.inkscape.org/) -->

<svg
   xmlns:svg="http://www.w3.org/2000/svg"
   xmlns="http://www.w3.org/2000/svg"
   version="1.1"
   width="16"
   height="16"
   id="svg17534">
  <defs
     id="defs17536">
    <mask
       id="mask14192">
      <path
         d="m -11.03125,329.04687 a 7.578125,8.421875 0 1 1 -15.15625,0 7.578125,8.421875 0 1 1 15.15625,0 z"
         transform="matrix(0.37323498,-0.37323529,0.33584308,0.33584335,-310.56244,357.54612)"
         id="path14194"
         style="fill:#ffffff;fill-opacity:1;stroke:none;display:inline;enable-background:new" />
    </mask>
  </defs>
  <g
     id="layer1">
    <g
       transform="matrix(0.9996047,0,0,1,216.91936,-462)"
       id="g14126"
       style="opacity:0.4;display:inline;enable-background:new">
      <path
         d="M -204.88388,462.88889 C -205.42678,462.34292 -206.17677,462 -207.0052,462 c -1.65686,0 -3.0052,1.35598 -3.00521,3.02222 0,0.60074 -0.1804,1.1919 -0.52139,1.53482 -0.34099,0.34292 -0.85733,0.46518 -1.46735,0.46518 -1.65685,0 -3.0052,1.35598 -3.0052,3.02223 0,1.66624 1.34835,3.02222 3.0052,3.02222 0.81712,0 1.19447,0.24055 1.50717,0.55505 0.31271,0.31448 0.48157,0.70478 0.48157,1.35606 0,1.66623 1.34834,3.02223 3.00521,3.02222 1.65686,0 3.0052,-1.35599 3.0052,-3.02222 0,-1.66623 -1.34834,-3.02223 -3.0052,-3.02222 -1.37405,0 -1.98874,-0.94053 -1.98874,-1.91111 0,-0.95227 0.64396,-2 1.98874,-2 1.65685,0 3.0052,-1.35598 3.0052,-3.02223 0,-0.83312 -0.34099,-1.58736 -0.88388,-2.13333 z"
         id="path14128"
         style="opacity:0.6;fill:#eae3d0;fill-opacity:1;stroke:none;display:inline;enable-background:new" />
      <path
         d="M -205.63662,463.57687 C -205.99616,463.21346 -206.49287,463 -207.0415,463 c -1.09728,0 -1.97561,0.88777 -1.97561,1.99683 -1e-5,1.11174 -0.21035,1.42622 -0.8561,2.15214 -0.64576,0.72591 -1.19475,0.80521 -2.08537,0.82092 -1.13541,0 -2.04142,1.06793 -2.04142,2.0634 0,0.99547 0.87833,1.99683 1.97561,1.99683 0.85106,0 1.51887,0.34266 2.05905,0.89992 0.54018,0.55726 1.01411,1.0022 1.01412,2.07313 0,1.10906 0.87833,1.99683 1.97561,1.99683 0.54863,0 1.04533,-0.21345 1.40488,-0.57687 0.35953,-0.36339 0.57072,-0.86542 0.57073,-1.41996 0,-1.10907 -0.87834,-1.99683 -1.97561,-1.99683 -0.82801,0 -1.43009,-0.23868 -2.27317,-1.09997 -0.84309,-0.8613 -0.91279,-2.871 0.078,-3.78404 0.99084,-0.91304 1.41015,-1.12867 2.12926,-1.12867 1.09728,0 1.97561,-0.88776 1.97561,-1.99683 -3e-5,-0.55449 -0.21122,-1.05653 -0.57076,-1.41992 l -1e-5,-4e-5 z"
         id="path14130"
         style="fill:#3a3935;fill-opacity:1;stroke:none;display:inline;enable-background:new" />
    </g>
    <g
       transform="matrix(0.9996047,0,0,1,216.91936,-462)"
       mask="url(#mask14192)"
       id="g14172"
       style="display:inline;enable-background:new">
      <path
         d="M -204.88388,462.88889 C -205.42678,462.34292 -206.17677,462 -207.0052,462 c -1.65686,0 -3.0052,1.35598 -3.00521,3.02222 0,0.60074 -0.1804,1.1919 -0.52139,1.53482 -0.34099,0.34292 -0.85733,0.46518 -1.46735,0.46518 -1.65685,0 -3.0052,1.35598 -3.0052,3.02223 0,1.66624 1.34835,3.02222 3.0052,3.02222 0.81712,0 1.19447,0.24055 1.50717,0.55505 0.31271,0.31448 0.48157,0.70478 0.48157,1.35606 0,1.66623 1.34834,3.02223 3.00521,3.02222 1.65686,0 3.0052,-1.35599 3.0052,-3.02222 0,-1.66623 -1.34834,-3.02223 -3.0052,-3.02222 -1.37405,0 -1.98874,-0.94053 -1.98874,-1.91111 0,-0.95227 0.64396,-2 1.98874,-2 1.65685,0 3.0052,-1.35598 3.0052,-3.02223 0,-0.83312 -0.34099,-1.58736 -0.88388,-2.13333 z"
         id="path14174"
         style="opacity:0.6;fill:#eae3d0;fill-opacity:1;stroke:none;display:inline;enable-background:new" />
      <path
         d="M -205.63662,463.57687 C -205.99616,463.21346 -206.49287,463 -207.0415,463 c -1.09728,0 -1.97561,0.88777 -1.97561,1.99683 -1e-5,1.11174 -0.21035,1.42622 -0.8561,2.15214 -0.64576,0.72591 -1.19475,0.80521 -2.08537,0.82092 -1.13541,0 -2.04142,1.06793 -2.04142,2.0634 0,0.99547 0.87833,1.99683 1.97561,1.99683 0.85106,0 1.51887,0.34266 2.05905,0.89992 0.54018,0.55726 1.01411,1.0022 1.01412,2.07313 0,1.10906 0.87833,1.99683 1.97561,1.99683 0.54863,0 1.04533,-0.21345 1.40488,-0.57687 0.35953,-0.36339 0.57072,-0.86542 0.57073,-1.41996 0,-1.10907 -0.87834,-1.99683 -1.97561,-1.99683 -0.82801,0 -1.43009,-0.23868 -2.27317,-1.09997 -0.84309,-0.8613 -0.91279,-2.871 0.078,-3.78404 0.99084,-0.91304 1.41015,-1.12867 2.12926,-1.12867 1.09728,0 1.97561,-0.88776 1.97561,-1.99683 -3e-5,-0.55449 -0.21122,-1.05653 -0.57076,-1.41992 l -1e-5,-4e-5 z"
         id="path14176"
         style="fill:#3a3935;fill-opacity:1;stroke:none;display:inline;enable-background:new" />
    </g>
  </g>
</svg>
