<?xml version="1.0" encoding="UTF-8" standalone="no"?>
<svg
   xmlns:dc="http://purl.org/dc/elements/1.1/"
   xmlns:cc="http://creativecommons.org/ns#"
   xmlns:rdf="http://www.w3.org/1999/02/22-rdf-syntax-ns#"
   xmlns:svg="http://www.w3.org/2000/svg"
   xmlns="http://www.w3.org/2000/svg"
   version="1.1"
   width="24"
   height="24"
   id="svg6001">
  <metadata
     id="metadata14">
    <rdf:RDF>
      <cc:Work
         rdf:about="">
        <dc:format>image/svg+xml</dc:format>
        <dc:type
           rdf:resource="http://purl.org/dc/dcmitype/StillImage" />
        <dc:title></dc:title>
      </cc:Work>
    </rdf:RDF>
  </metadata>
  <defs
     id="defs6003" />
  <path
     d="M 8.53125,15.125 13,20 l 5.03125,0 -4.59375,-5 -4.71875,0 -0.1875,0.125 z"
     id="path3785"
     style="color:#000000;display:inline;overflow:visible;visibility:visible;opacity:0.35;fill:#bebebe;fill-opacity:1;fill-rule:nonzero;stroke:none;stroke-width:1;marker:none;enable-background:new" />
  <path
     d="M 13,5 8.40625,10 13.4375,10 18.03125,5 13,5 Z"
     id="rect4985"
     style="color:#000000;display:inline;overflow:visible;visibility:visible;opacity:0.35;fill:#bebebe;fill-opacity:1;fill-rule:nonzero;stroke:none;stroke-width:1;marker:none;enable-background:new" />
  <path
     d="m 9,12.5 a 1.5,1.5 0 0 1 -3,0 1.5,1.5 0 1 1 3,0 z"
     id="path4955-1-15"
     style="fill:#bebebe" />
  <path
     d="m 13,12.5 a 1.5,1.5 0 0 1 -3,0 1.5,1.5 0 1 1 3,0 z"
     id="path4957-2-8"
     style="fill:#bebebe" />
  <path
     d="m 17,12.5 a 1.5,1.5 0 0 1 -3,0 1.5,1.5 0 1 1 3,0 z"
     id="path4959-4-0"
     style="fill:#bebebe" />
</svg>
