<?xml version="1.0" encoding="UTF-8" standalone="no"?>
<!-- Created with Inkscape (http://www.inkscape.org/) -->

<svg
   xmlns:svg="http://www.w3.org/2000/svg"
   xmlns="http://www.w3.org/2000/svg"
   version="1.1"
   width="16"
   height="16"
   id="svg5489">
  <defs
     id="defs5491" />
  <g
     id="layer1">
    <path
       d="M 11.36338,1.57687 C 11.00384,1.21346 10.50713,1 9.9585,1 8.86122,1 7.98289,1.88777 7.98289,2.99683 7.98288,4.10857 7.77254,4.42305 7.12679,5.14897 6.48103,5.87488 5.93204,5.95418 5.04142,5.96989 3.90601,5.96989 3,7.03782 3,8.03329 c 0,0.99547 0.87833,1.99683 1.97561,1.99683 0.85106,0 1.51887,0.34266 2.05905,0.89992 0.54018,0.55726 1.01411,1.0022 1.01412,2.07313 0,1.10906 0.87833,1.99683 1.97561,1.99683 0.54863,0 1.04533,-0.21345 1.40488,-0.57687 C 11.7888,14.05974 11.99999,13.55771 12,13.00317 12,11.8941 11.12166,11.00634 10.02439,11.00634 9.19638,11.00634 8.5943,10.76766 7.75122,9.90637 6.90813,9.04507 6.83843,7.03537 7.82922,6.12233 8.82006,5.20929 9.23937,4.99366 9.95848,4.99366 c 1.09728,0 1.97561,-0.88776 1.97561,-1.99683 -3e-5,-0.55449 -0.21122,-1.05653 -0.57076,-1.41992 l -10e-6,-4e-5 z"
       id="rect12906-1-1-3-1"
       style="fill:#606060;fill-opacity:1;stroke:none;display:inline;enable-background:new" />
  </g>
</svg>
