<?xml version="1.0" encoding="UTF-8" standalone="no"?>
<!-- Created with Inkscape (http://www.inkscape.org/) -->

<svg
   xmlns:svg="http://www.w3.org/2000/svg"
   xmlns="http://www.w3.org/2000/svg"
   xmlns:xlink="http://www.w3.org/1999/xlink"
   version="1.1"
   width="22"
   height="22"
   id="svg16276">
  <defs
     id="defs16278">
    <linearGradient
       id="linearGradient3678">
      <stop
         id="stop3680"
         style="stop-color:#ffffff;stop-opacity:1"
         offset="0" />
      <stop
         id="stop3682"
         style="stop-color:#e6e6e6;stop-opacity:1"
         offset="1" />
    </linearGradient>
    <linearGradient
       x1="-210.97321"
       y1="349.46631"
       x2="-210.97321"
       y2="366.80011"
       id="linearGradient16833"
       xlink:href="#linearGradient3678"
       gradientUnits="userSpaceOnUse"
       gradientTransform="matrix(0.99377135,0,0,0.99243122,-1.2706452,2.6339343)" />
  </defs>
  <g
     transform="translate(0,6)"
     id="layer1">
    <g
       transform="translate(221,-353)"
       id="g14493"
       style="display:inline;enable-background:new">
      <path
         d="m -204.87841,349.8772 c -0.53951,-0.53879 -1.28484,-0.8772 -2.10811,-0.8772 -1.64653,0 -2.98648,1.33813 -2.98648,2.98246 0.40967,2.69154 -2.02756,3.64308 -4.04052,4.03508 -1.64653,0 -2.98648,1.33815 -2.98648,2.98246 0,1.02771 0.52302,1.9196 1.31757,2.45614 0.47672,0.32194 1.05146,0.52632 1.66891,0.52632 2.39518,-0.036 3.96866,1.64016 4.04055,4.03509 0,1.64431 1.33994,2.98245 2.98648,2.98245 0.82327,0 1.5686,-0.33841 2.10811,-0.87719 0.53951,-0.53879 0.87838,-1.2831 0.87838,-2.10526 0,-1.64431 -1.33994,-2.98247 -2.98649,-2.98247 -2.6286,0.36457 -4.12838,-2.14896 -4.12838,-4.03508 0,-1.88613 1.70479,-3.96254 4.12838,-4.0351 1.64653,10e-6 2.98648,-1.33814 2.98649,-2.98246 -4e-5,-0.82213 -0.33891,-1.56644 -0.87841,-2.10522 l 0,-2e-5 z"
         id="path14495"
         style="opacity:0.5;fill:#000000;fill-opacity:1;stroke:none;display:inline;enable-background:new" />
      <path
         d="m -204.87841,348.8772 c -0.53951,-0.53879 -1.28484,-0.8772 -2.10811,-0.8772 -1.64653,0 -2.98648,1.33813 -2.98648,2.98246 0.40967,2.69154 -2.02755,3.64308 -4.04051,4.03508 -1.64654,0 -2.98648,1.33815 -2.98649,2.98246 0,1.02771 0.52302,1.9196 1.31757,2.45614 0.47672,0.32194 1.05146,0.52632 1.66892,0.52632 2.39518,-0.036 3.96866,1.64016 4.04054,4.03509 0,1.64431 1.33994,2.98245 2.98648,2.98245 0.82328,0 1.5686,-0.33841 2.10811,-0.87719 0.53951,-0.53879 0.87838,-1.2831 0.87838,-2.10526 0,-1.64431 -1.33994,-2.98247 -2.98649,-2.98247 -2.6286,0.36457 -4.12838,-2.14896 -4.12838,-4.03508 0,-1.88613 1.7048,-3.96254 4.12838,-4.0351 1.64654,10e-6 2.98649,-1.33814 2.98649,-2.98246 -4e-5,-0.82213 -0.33891,-1.56644 -0.87841,-2.10522 l 0,-2e-5 z"
         id="path14497"
         style="fill:url(#linearGradient16833);fill-opacity:1;stroke:none;display:inline;enable-background:new" />
    </g>
  </g>
</svg>
