<?xml version="1.0" encoding="UTF-8" standalone="no"?>
<!-- Created with Inkscape (http://www.inkscape.org/) -->

<svg
   xmlns:svg="http://www.w3.org/2000/svg"
   xmlns="http://www.w3.org/2000/svg"
   version="1.1"
   width="22"
   height="22"
   id="svg17534">
  <defs
     id="defs17536" />
  <g
     transform="translate(0,6)"
     id="layer1">
    <g
       transform="translate(222,-489)"
       id="g14353"
       style="opacity:0.4;display:inline;enable-background:new">
      <path
         d="m -205.18422,484.18326 c -0.71837,-0.7178 -1.7108,-1.18327 -2.80701,-1.18326 -2.19242,0 -3.99123,1.79737 -3.99123,3.98805 0,1.30403 -1.68198,3.0239 -3.02632,3.0239 -2.19242,0 -3.99123,1.79739 -3.99122,3.98805 0,2.19066 1.7988,3.98804 3.99122,3.98804 1.52049,0 3.02632,1.51782 3.02632,3.02391 0,2.19066 1.79881,3.98805 3.99123,3.98805 2.19242,0 3.99123,-1.79739 3.99123,-3.98805 -1e-5,-2.19066 -1.79881,-3.98805 -3.99123,-3.98805 -1.6027,0.36409 -2.97892,-1.44877 -3.02632,-3.0239 -0.0474,-1.57513 1.47624,-3.29327 3.02632,-3.0239 2.19241,-10e-6 3.99122,-1.79738 3.99123,-3.98805 0,-1.09534 -0.46584,-2.08698 -1.18422,-2.80479 z"
         id="path14355"
         style="opacity:0.6;fill:#43423e;fill-opacity:1;stroke:none;display:inline;enable-background:new" />
      <path
         d="m -205.87841,484.8772 c -0.53951,-0.53879 -1.28484,-0.8772 -2.10811,-0.8772 -1.64653,0 -2.98648,1.33813 -2.98648,2.98246 -10e-6,2.17823 -2.07005,4.03508 -4.04052,4.03508 -1.64653,0 -2.98648,1.33815 -2.98648,2.98246 0,1.02771 0.52301,1.9196 1.31757,2.45614 0.47672,0.32194 1.05146,0.52632 1.66891,0.52632 2.13967,0 4.04055,2.0243 4.04055,4.03509 0,1.64431 1.33994,2.98245 2.98648,2.98245 0.82327,0 1.5686,-0.33841 2.10811,-0.87719 0.53951,-0.53879 0.87838,-1.2831 0.87838,-2.10526 0,-1.64431 -1.33994,-2.98247 -2.98649,-2.98247 -2.6286,0.36457 -4.12838,-2.14896 -4.12838,-4.03508 0,-1.88613 1.70479,-3.96254 4.12838,-4.0351 1.64653,10e-6 2.98648,-1.33814 2.98649,-2.98246 -4e-5,-0.82213 -0.33891,-1.56644 -0.87841,-2.10522 l 0,-2e-5 z"
         id="path14357"
         style="fill:#dfd8c8;fill-opacity:1;stroke:none;display:inline;enable-background:new" />
    </g>
  </g>
</svg>
