<?xml version="1.0" encoding="UTF-8" standalone="no"?>
<!-- Created with Inkscape (http://www.inkscape.org/) -->

<svg
   xmlns:svg="http://www.w3.org/2000/svg"
   xmlns="http://www.w3.org/2000/svg"
   version="1.1"
   width="24"
   height="24"
   id="svg5489">
  <defs
     id="defs5491" />
  <g
     transform="translate(0,8)"
     id="layer1">
    <path
       d="M 17.12159,-5.1228 C 16.58208,-5.66159 15.83675,-6 15.01348,-6 13.36695,-6 12.027,-4.66187 12.027,-3.01754 12.02699,-0.83931 9.95695,1.01754 7.98648,1.01754 6.33995,1.01754 5,2.35569 5,4 c 0,1.02771 0.52301,1.9196 1.31757,2.45614 0.47672,0.32194 1.05146,0.52632 1.66891,0.52632 2.13967,0 4.04055,2.0243 4.04055,4.03509 0,1.64431 1.33994,2.98245 2.98648,2.98245 0.82327,0 1.5686,-0.33841 2.10811,-0.87719 C 17.66113,12.58402 18,11.83971 18,11.01755 18,9.37324 16.66006,8.03508 15.01351,8.03508 12.38491,8.39965 10.88513,5.88612 10.88513,4 c 0,-1.88613 1.70479,-3.96254 4.12838,-4.0351 1.64653,10e-6 2.98648,-1.33814 2.98649,-2.98246 -4e-5,-0.82213 -0.33891,-1.56644 -0.87841,-2.10522 l 0,-2e-5 z"
       id="path5369"
       style="opacity:0.5;fill:#606060;fill-opacity:1;stroke:none;display:inline;enable-background:new" />
  </g>
</svg>
