<?xml version="1.0" encoding="UTF-8" standalone="no"?>
<!-- Created with Inkscape (http://www.inkscape.org/) -->

<svg
   xmlns:svg="http://www.w3.org/2000/svg"
   xmlns="http://www.w3.org/2000/svg"
   version="1.1"
   width="24"
   height="24"
   id="svg5489">
  <defs
     id="defs5491">
    <mask
       id="mask5464">
      <path
         d="m -11.03125,329.04687 a 7.578125,8.421875 0 1 1 -15.15625,0 7.578125,8.421875 0 1 1 15.15625,0 z"
         transform="matrix(0.46654421,-0.46654415,0.41980429,0.41980422,-277.45319,490.18264)"
         id="path5466"
         style="fill:#ffffff;fill-opacity:1;stroke:none;display:inline;enable-background:new" />
    </mask>
  </defs>
  <g
     transform="translate(0,8)"
     id="layer1">
    <path
       d="M 17.12159,-5.1228 C 16.58208,-5.66159 15.83675,-6 15.01348,-6 13.36695,-6 12.027,-4.66187 12.027,-3.01754 12.02699,-0.83931 9.95695,1.01754 7.98648,1.01754 6.33995,1.01754 5,2.35569 5,4 c 0,1.02771 0.52301,1.9196 1.31757,2.45614 0.47672,0.32194 1.05146,0.52632 1.66891,0.52632 2.13967,0 4.04055,2.0243 4.04055,4.03509 0,1.64431 1.33994,2.98245 2.98648,2.98245 0.82327,0 1.5686,-0.33841 2.10811,-0.87719 C 17.66113,12.58402 18,11.83971 18,11.01755 18,9.37324 16.66006,8.03508 15.01351,8.03508 12.38491,8.39965 10.88513,5.88612 10.88513,4 c 0,-1.88613 1.70479,-3.96254 4.12838,-4.0351 1.64653,10e-6 2.98648,-1.33814 2.98649,-2.98246 -4e-5,-0.82213 -0.33891,-1.56644 -0.87841,-2.10522 l 0,-2e-5 z"
       id="path5369"
       style="opacity:0.5;fill:#606060;fill-opacity:1;stroke:none;display:inline;enable-background:new" />
    <path
       d="m -145.87841,620.8772 c -0.53951,-0.53879 -1.28484,-0.8772 -2.10811,-0.8772 -1.64653,0 -2.98648,1.33813 -2.98648,2.98246 -10e-6,2.17823 -2.07005,4.03508 -4.04052,4.03508 -1.64653,0 -2.98648,1.33815 -2.98648,2.98246 0,1.02771 0.52301,1.9196 1.31757,2.45614 0.47672,0.32194 1.05146,0.52632 1.66891,0.52632 2.13967,0 4.04055,2.0243 4.04055,4.03509 0,1.64431 1.33994,2.98245 2.98648,2.98245 0.82327,0 1.5686,-0.33841 2.10811,-0.87719 0.53951,-0.53879 0.87838,-1.2831 0.87838,-2.10526 0,-1.64431 -1.33994,-2.98247 -2.98649,-2.98247 -2.6286,0.36457 -4.12838,-2.14896 -4.12838,-4.03508 0,-1.88613 1.70479,-3.96254 4.12838,-4.0351 1.64653,1e-5 2.98648,-1.33814 2.98649,-2.98246 -4e-5,-0.82213 -0.33891,-1.56644 -0.87841,-2.10522 l 0,-2e-5 z"
       transform="translate(162.98649,-626.03508)"
       mask="url(#mask5464)"
       id="path5393"
       style="fill:#606060;fill-opacity:1;stroke:none;display:inline;enable-background:new" />
  </g>
</svg>
