<?xml version="1.0" encoding="UTF-8" standalone="no"?>
<!-- Created with Inkscape (http://www.inkscape.org/) -->

<svg
   xmlns:svg="http://www.w3.org/2000/svg"
   xmlns="http://www.w3.org/2000/svg"
   version="1.1"
   width="16"
   height="16"
   id="svg17534">
  <defs
     id="defs17536">
    <mask
       id="mask6261">
      <path
         d="m -11.03125,329.04687 a 7.578125,8.421875 0 1 1 -15.15625,0 7.578125,8.421875 0 1 1 15.15625,0 z"
         transform="matrix(0.37323498,-0.37323529,0.33584308,0.33584335,-314.56245,215.54612)"
         id="path6263"
         style="fill:#ffffff;fill-opacity:1;stroke:none;display:inline;enable-background:new" />
    </mask>
  </defs>
  <g
     transform="translate(216,-325)"
     id="use6154"
     style="opacity:0.4;display:inline;enable-background:new">
    <path
       d="M -204.63662,327.57687 C -204.99616,327.21346 -205.49287,327 -206.0415,327 c -1.09728,0 -1.97561,0.88777 -1.97561,1.99683 0,1.11174 -0.21035,1.42622 -0.8561,2.15214 -0.64575,0.72591 -1.19475,0.80521 -2.08537,0.82092 -1.1354,0 -2.04142,1.06793 -2.04142,2.0634 0,0.99547 0.87833,1.99683 1.97561,1.99683 0.85106,0 1.51887,0.34266 2.05905,0.89992 0.54018,0.55726 1.01411,1.0022 1.01412,2.07313 0,1.10906 0.87833,1.99683 1.97561,1.99683 0.54863,0 1.04534,-0.21345 1.40488,-0.57687 0.35953,-0.36339 0.57072,-0.86542 0.57073,-1.41996 0,-1.10907 -0.87834,-1.99683 -1.97561,-1.99683 -0.82801,0 -1.43009,-0.23868 -2.27317,-1.09997 -0.84308,-0.8613 -0.91279,-2.871 0.078,-3.78404 0.99084,-0.91304 1.41016,-1.12867 2.12926,-1.12867 1.09728,0 1.97561,-0.88776 1.97562,-1.99683 -4e-5,-0.55449 -0.21123,-1.05653 -0.57077,-1.41992 l -1e-5,-4e-5 z"
       id="path6823"
       style="opacity:0.3;fill:#000000;fill-opacity:1;stroke:none;display:inline;enable-background:new" />
    <path
       d="M -204.63662,326.57687 C -204.99616,326.21346 -205.49287,326 -206.0415,326 c -1.09728,0 -1.97561,0.88777 -1.97561,1.99683 0,1.11174 -0.21035,1.42622 -0.8561,2.15214 -0.64575,0.72591 -1.19475,0.80521 -2.08537,0.82092 -1.1354,0 -2.04142,1.06793 -2.04142,2.0634 0,0.99547 0.87833,1.99683 1.97561,1.99683 0.85106,0 1.51887,0.34266 2.05905,0.89992 0.54018,0.55726 1.01411,1.0022 1.01412,2.07313 0,1.10906 0.87833,1.99683 1.97561,1.99683 0.54863,0 1.04534,-0.21345 1.40488,-0.57687 0.35953,-0.36339 0.57072,-0.86542 0.57073,-1.41996 0,-1.10907 -0.87834,-1.99683 -1.97561,-1.99683 -0.82801,0 -1.43009,-0.23868 -2.27317,-1.09997 -0.84308,-0.8613 -0.91279,-2.871 0.078,-3.78404 0.99084,-0.91304 1.41016,-1.12867 2.12926,-1.12867 1.09728,0 1.97561,-0.88776 1.97562,-1.99683 -4e-5,-0.55449 -0.21123,-1.05653 -0.57077,-1.41992 l -1e-5,-4e-5 z"
       id="path6825"
       style="fill:#dfdbd2;fill-opacity:1;stroke:none;display:inline;enable-background:new" />
  </g>
  <g
     transform="translate(216,-325)"
     mask="url(#mask6261)"
     id="g6190"
     style="display:inline;enable-background:new">
    <path
       d="M -204.63662,327.57687 C -204.99616,327.21346 -205.49287,327 -206.0415,327 c -1.09728,0 -1.97561,0.88777 -1.97561,1.99683 0,1.11174 -0.21035,1.42622 -0.8561,2.15214 -0.64575,0.72591 -1.19475,0.80521 -2.08537,0.82092 -1.1354,0 -2.04142,1.06793 -2.04142,2.0634 0,0.99547 0.87833,1.99683 1.97561,1.99683 0.85106,0 1.51887,0.34266 2.05905,0.89992 0.54018,0.55726 1.01411,1.0022 1.01412,2.07313 0,1.10906 0.87833,1.99683 1.97561,1.99683 0.54863,0 1.04534,-0.21345 1.40488,-0.57687 0.35953,-0.36339 0.57072,-0.86542 0.57073,-1.41996 0,-1.10907 -0.87834,-1.99683 -1.97561,-1.99683 -0.82801,0 -1.43009,-0.23868 -2.27317,-1.09997 -0.84308,-0.8613 -0.91279,-2.871 0.078,-3.78404 0.99084,-0.91304 1.41016,-1.12867 2.12926,-1.12867 1.09728,0 1.97561,-0.88776 1.97562,-1.99683 -4e-5,-0.55449 -0.21123,-1.05653 -0.57077,-1.41992 l -1e-5,-4e-5 z"
       id="path6192"
       style="opacity:0.3;fill:#000000;fill-opacity:1;stroke:none;display:inline;enable-background:new" />
    <path
       d="M -204.63662,326.57687 C -204.99616,326.21346 -205.49287,326 -206.0415,326 c -1.09728,0 -1.97561,0.88777 -1.97561,1.99683 0,1.11174 -0.21035,1.42622 -0.8561,2.15214 -0.64575,0.72591 -1.19475,0.80521 -2.08537,0.82092 -1.1354,0 -2.04142,1.06793 -2.04142,2.0634 0,0.99547 0.87833,1.99683 1.97561,1.99683 0.85106,0 1.51887,0.34266 2.05905,0.89992 0.54018,0.55726 1.01411,1.0022 1.01412,2.07313 0,1.10906 0.87833,1.99683 1.97561,1.99683 0.54863,0 1.04534,-0.21345 1.40488,-0.57687 0.35953,-0.36339 0.57072,-0.86542 0.57073,-1.41996 0,-1.10907 -0.87834,-1.99683 -1.97561,-1.99683 -0.82801,0 -1.43009,-0.23868 -2.27317,-1.09997 -0.84308,-0.8613 -0.91279,-2.871 0.078,-3.78404 0.99084,-0.91304 1.41016,-1.12867 2.12926,-1.12867 1.09728,0 1.97561,-0.88776 1.97562,-1.99683 -4e-5,-0.55449 -0.21123,-1.05653 -0.57077,-1.41992 l -1e-5,-4e-5 z"
       id="path6194"
       style="fill:#dfdbd2;fill-opacity:1;stroke:none;display:inline;enable-background:new" />
  </g>
</svg>
