<?xml version="1.0" encoding="UTF-8" standalone="no"?>
<svg
   xmlns:dc="http://purl.org/dc/elements/1.1/"
   xmlns:cc="http://creativecommons.org/ns#"
   xmlns:rdf="http://www.w3.org/1999/02/22-rdf-syntax-ns#"
   xmlns:svg="http://www.w3.org/2000/svg"
   xmlns="http://www.w3.org/2000/svg"
   id="svg6001"
   height="16"
   width="16"
   version="1.1">
  <metadata
     id="metadata14">
    <rdf:RDF>
      <cc:Work
         rdf:about="">
        <dc:format>image/svg+xml</dc:format>
        <dc:type
           rdf:resource="http://purl.org/dc/dcmitype/StillImage" />
        <dc:title></dc:title>
      </cc:Work>
    </rdf:RDF>
  </metadata>
  <defs
     id="defs6003" />
  <path
     style="opacity:0.35;color:#000000;fill:#bebebe;fill-opacity:1;fill-rule:nonzero;stroke:none;stroke-width:1;marker:none;visibility:visible;display:inline;overflow:visible;enable-background:new"
     id="path3785"
     d="M 4.53125,11.125 9,16 14.03125,16 9.4375,11 4.71875,11 4.53125,11.125 z" />
  <path
     style="opacity:0.35;color:#000000;fill:#bebebe;fill-opacity:1;fill-rule:nonzero;stroke:none;stroke-width:1;marker:none;visibility:visible;display:inline;overflow:visible;enable-background:new"
     id="rect4985"
     d="M 9,1 4.40625,6 9.4375,6 14.03125,1 9,1 z" />
  <path
     style="fill:#bebebe"
     id="path4955-1-15"
     d="m 5,8.5 a 1.5,1.5 0 0 1 -3,0 1.5,1.5 0 1 1 3,0 z" />
  <path
     style="fill:#bebebe"
     id="path4957-2-8"
     d="m 9,8.5 a 1.5,1.5 0 0 1 -3,0 1.5,1.5 0 1 1 3,0 z" />
  <path
     style="fill:#bebebe"
     id="path4959-4-0"
     d="m 13,8.5 a 1.5,1.5 0 0 1 -3,0 1.5,1.5 0 1 1 3,0 z" />
</svg>
